<svg id="Layer_1" enable-background="new 0 0 512 512" viewBox="0 0 512 512" xmlns="http://www.w3.org/2000/svg"><g clip-rule="evenodd" fill-rule="evenodd"><g><path d="m148.915 484.464c-2.479-33.043-30.291-59.313-63.941-59.313s-61.462 26.269-63.94 59.313c-.196 2.61 1.842 4.807 4.46 4.807h118.96c2.618 0 4.657-2.196 4.461-4.807z" fill="#72d561"/><path d="m148.915 484.464c-2.479-33.043-30.291-59.313-63.941-59.313-1.512 0-3.011.055-4.498.159 31.599 2.217 57.075 27.594 59.443 59.153.196 2.611-1.843 4.807-4.461 4.807h8.995c2.619.001 4.658-2.195 4.462-4.806z" fill="#3cbe52"/><path d="m84.975 418.062c19.087 0 34.655-15.567 34.655-34.655 0-19.087-15.567-34.655-34.655-34.655s-34.655 15.567-34.655 34.655c-.001 19.088 15.567 34.655 34.655 34.655z" fill="#ffd6bd"/><path d="m84.974 348.753c19.14 0 34.655 15.516 34.655 34.655s-15.515 34.655-34.655 34.655c-1.287 0-2.557-.073-3.807-.209 17.347-1.896 30.848-16.594 30.848-34.446s-13.5-32.55-30.848-34.446c1.25-.136 2.52-.209 3.807-.209z" fill="#f9c6aa"/></g><path d="m151.898 47.052c-3.9 2.054-8.728.557-10.781-3.344-2.054-3.9-.557-8.728 3.344-10.781 17.413-9.203 36.072-16.383 55.663-21.224 19.038-4.705 38.896-7.202 59.281-7.202 20.555 0 40.568 2.538 59.738 7.318 12.134 3.025 23.921 6.956 35.284 11.716l-3.165-6.245c-1.984-3.935-.404-8.734 3.531-10.719 3.935-1.984 8.734-.404 10.719 3.531l13.732 27.095c1.985 3.935.404 8.734-3.531 10.719-.534.269-1.084.472-1.64.613l-28.484 9.091c-4.194 1.329-8.671-.994-10-5.187-1.329-4.194.994-8.671 5.187-10l9.911-3.163c-11.333-4.893-23.147-8.906-35.356-11.95-17.86-4.453-36.592-6.818-55.925-6.818-19.175 0-37.752 2.324-55.468 6.702-18.299 4.521-35.744 11.236-52.04 19.848zm347.008 278.955c3.779-2.261 8.677-1.03 10.938 2.75 2.261 3.779 1.03 8.677-2.75 10.938l-26.056 15.613c-3.779 2.261-8.677 1.03-10.938-2.75-.287-.48-.517-.977-.694-1.485l-11.127-27.883c-1.622-4.09.378-8.721 4.469-10.344 4.09-1.622 8.721.378 10.344 4.469l3.846 9.639c3.357-9.578 6.093-19.416 8.158-29.465 3.076-14.967 4.694-30.551 4.694-46.602 0-11.179-.785-22.105-2.299-32.729-1.565-10.985-3.884-21.661-6.895-31.975-1.225-4.228 1.209-8.65 5.437-9.875s8.65 1.209 9.875 5.437c3.254 11.145 5.741 22.554 7.395 34.162 1.638 11.491 2.487 23.171 2.487 34.979 0 16.973-1.746 33.627-5.068 49.789-2.033 9.891-4.646 19.542-7.8 28.918zm-298.095 168.936c2.52 3.624 1.624 8.605-2 11.125s-8.605 1.624-11.125-2l-17.354-24.931c-2.52-3.624-1.624-8.605 2-11.125.54-.375 1.111-.675 1.699-.901l26.804-12.881c3.969-1.898 8.727-.219 10.625 3.75s.219 8.727-3.75 10.625l-9.363 4.5c6.904 1.889 13.956 3.469 21.139 4.724 12.942 2.261 26.28 3.442 39.919 3.442 13.875 0 27.448-1.223 40.618-3.565 13.501-2.401 26.587-5.975 39.15-10.61 4.142-1.519 8.731.608 10.25 4.75s-.608 8.731-4.75 10.25c-13.462 4.967-27.467 8.794-41.899 11.36-14.093 2.506-28.587 3.815-43.368 3.815-14.529 0-28.787-1.266-42.669-3.692-6.717-1.174-13.353-2.626-19.898-4.344zm-187.061-295.57c-3.538 2.623-8.533 1.882-11.156-1.656s-1.882-8.533 1.656-11.156l24.417-18.07c3.538-2.623 8.533-1.882 11.156 1.656.261.352.488.719.683 1.096l.004-.002 13.945 26.985c2.019 3.917.48 8.731-3.438 10.75-3.917 2.019-8.731.48-10.75-3.438l-4.776-9.242c-1.4 5.769-2.584 11.629-3.542 17.569-1.928 11.95-2.931 24.313-2.931 37.021 0 16.051 1.618 31.635 4.694 46.602 3.162 15.383 7.894 30.272 14.022 44.493 1.743 4.056-.132 8.757-4.188 10.5s-8.757-.132-10.5-4.188c-6.5-15.082-11.548-31.013-14.96-47.617-3.322-16.162-5.068-32.816-5.068-49.789 0-13.348 1.088-26.551 3.181-39.521.878-5.441 1.937-10.827 3.168-16.15z" fill="#b4d2d7"/><g><path d="m497.775 484.464c-2.479-33.043-30.291-59.313-63.941-59.313s-61.462 26.269-63.94 59.313c-.196 2.61 1.842 4.807 4.461 4.807h118.96c2.617 0 4.655-2.196 4.46-4.807z" fill="#fc685b"/><path d="m497.775 484.464c-2.479-33.043-30.291-59.313-63.941-59.313-1.512 0-3.011.055-4.498.159 31.599 2.217 57.075 27.594 59.443 59.153.196 2.611-1.843 4.807-4.461 4.807h8.996c2.618.001 4.656-2.195 4.461-4.806z" fill="#f35244"/><ellipse cx="433.834" cy="383.408" fill="#ffd6bd" rx="34.655" ry="34.655" transform="matrix(1 -.022 .022 1 -8.227 9.515)"/><path d="m433.834 348.753c19.14 0 34.655 15.516 34.655 34.655s-15.515 34.655-34.655 34.655c-1.287 0-2.557-.073-3.807-.209 17.348-1.896 30.848-16.594 30.848-34.446s-13.5-32.55-30.848-34.446c1.25-.136 2.52-.209 3.807-.209z" fill="#f9c6aa"/></g><g><path d="m497.775 150.202c-2.479-33.043-30.291-59.313-63.941-59.313s-61.462 26.269-63.94 59.313c-.196 2.61 1.842 4.807 4.461 4.807h118.96c2.617.001 4.655-2.196 4.46-4.807z" fill="#ffda2d"/><path d="m497.775 150.202c-2.479-33.043-30.291-59.313-63.941-59.313-1.512 0-3.011.055-4.498.159 31.599 2.217 57.075 27.594 59.443 59.153.196 2.611-1.843 4.807-4.461 4.807h8.996c2.618.002 4.656-2.195 4.461-4.806z" fill="#ffc700"/><ellipse cx="433.834" cy="49.146" fill="#ffd6bd" rx="34.655" ry="34.655" transform="matrix(1 -.022 .022 1 -.965 9.436)"/><path d="m433.834 14.491c19.14 0 34.655 15.516 34.655 34.655s-15.515 34.655-34.655 34.655c-1.287 0-2.557-.073-3.807-.209 17.348-1.896 30.848-16.593 30.848-34.446s-13.5-32.55-30.848-34.446c1.25-.136 2.52-.209 3.807-.209z" fill="#f9c6aa"/></g><g><path d="m148.915 141.127c-2.479-33.043-30.291-59.313-63.941-59.313s-61.462 26.269-63.94 59.313c-.196 2.61 1.842 4.807 4.46 4.807h118.96c2.618 0 4.657-2.197 4.461-4.807z" fill="#64b5f6"/><path d="m148.915 141.127c-2.479-33.043-30.291-59.313-63.941-59.313-1.512 0-3.011.055-4.498.159 31.599 2.217 57.075 27.594 59.443 59.153.196 2.611-1.843 4.807-4.461 4.807h8.995c2.619.001 4.658-2.196 4.462-4.806z" fill="#42a5f5"/><path d="m84.975 74.726c19.087 0 34.655-15.567 34.655-34.655s-15.568-34.655-34.655-34.655c-19.088 0-34.655 15.567-34.655 34.655s15.567 34.655 34.655 34.655z" fill="#ffd6bd"/><path d="m84.974 5.416c19.14 0 34.655 15.516 34.655 34.655s-15.515 34.655-34.655 34.655c-1.287 0-2.557-.073-3.807-.209 17.347-1.896 30.848-16.594 30.848-34.446s-13.5-32.55-30.848-34.446c1.25-.137 2.52-.209 3.807-.209z" fill="#f9c6aa"/></g><g><path d="m249.757 200.85c72.419 89.935 108.628 134.902 108.628 134.902 7.369 7.369 7.368 19.423-.001 26.792s-19.423 7.37-26.792.001c7.368 7.368 7.368 19.423 0 26.791s-19.424 7.369-26.791.001l-14.614-14.614c7.368 7.368 7.367 19.423 0 26.791-7.368 7.368-19.423 7.368-26.792.001l-25.788-25.788c7.368 7.368 7.368 19.423-.001 26.791-7.367 7.368-19.424 7.367-26.791 0l-105.675-105.674s7.143-31.998 21.429-95.994z" fill="#ffd6bd"/><path d="m249.758 200.85 14.926 18.536h-142.253l4.138-18.536z" fill="#f9c6aa"/><path d="m269.759 311.561c-2.996-2.996-2.996-7.854 0-10.85s7.854-2.996 10.85 0l52.189 52.189c2.996 2.996 2.996 7.854 0 10.85s-7.854 2.996-10.85 0zm-59.974 47.193c-2.996-2.996-2.996-7.854 0-10.85s7.854-2.996 10.85 0l18.305 18.305c2.996 2.996 2.996 7.854 0 10.85s-7.854 2.996-10.85 0zm29.987-23.597 40.771 40.771c2.996 2.996 7.854 2.996 10.85 0s2.996-7.854 0-10.85l-40.771-40.771c-2.996-2.996-7.854-2.996-10.85 0-2.996 2.997-2.996 7.854 0 10.85z" fill="#f9c6aa"/><path d="m142.752 190.547-33.158-6.606c-3.559-.709-7.051 1.623-7.761 5.182l-25.766 129.338c-.709 3.559 1.623 7.052 5.182 7.761l33.158 6.606c3.559.709 7.051-1.623 7.76-5.183l25.766-129.337c.71-3.559-1.622-7.051-5.181-7.761z" fill="#64b5f6"/><path d="m142.752 190.547-4.219-.84-25.304 127.016c-.709 3.56-4.201 5.892-7.761 5.183l-28.938-5.766-.462 2.321c-.709 3.559 1.622 7.052 5.183 7.761l33.158 6.606c3.559.709 7.051-1.623 7.76-5.183l25.766-129.336c.708-3.56-1.624-7.052-5.183-7.762z" fill="#42a5f5"/><path d="m412.798 289.238c-.914.348-36.206-88.806-37.108-88.469-33.898 12.667-59.886 17.285-94.812-11.529-11.049-9.116-25.946-10.128-36.94-.948l-44.459 37.12c-5.313 4.436-8.226 10.604-6.749 17.367l13.486 61.799c34.288-8.449 34.127-32.849 36.543-58.503 1.163-9.825 17.04-7.136 36.969 11.021l82.007 83.202z" fill="#f9c6aa"/><path d="m378.683 207.217-.088-.205-.087-.203-.086-.2-.168-.391-.082-.191-.081-.188-.08-.185-.004-.008-.153-.353-.076-.176-.075-.173-.074-.17-.073-.166-.142-.324-.069-.157-.068-.154-.066-.151-.014-.032-.109-.245-.253-.564-.073-.161-.233-.508-.048-.102c-.081-.173-.156-.331-.225-.474l-.011-.023-.006-.012c-.072-.148-.137-.278-.196-.392l-.015-.028c-.12-.23-.211-.385-.271-.46l-.002-.002c-.031-.037-.052-.054-.067-.049l-.694.258-.063.023-.063.023-.063.024-.063.023-.063.023-.063.023-.054.02-.009.003-.063.023-.063.023-.063.023-.063.023-.063.023-.063.023-.063.023-.063.023-.062.023-.063.023-.125.046-.063.023c-.689.252-1.375.501-2.058.748v.001c-22.328 8.038-41.402 12-62.299 4.234 22.798 12.532 42.632 10.642 65.432 3.263 10.512 25.381 29.738 73.43 30.41 73.175l-50.388 50.385 6.899 7 51.063-51.059c-.759.292-25.408-61.607-34.112-82.019zm-163.917 94.66c25.727-10.213 25.798-32.488 27.993-55.802 1.011-8.543 13.148-7.622 29.399 4.699l-.004-.004c-19.929-18.157-35.806-20.847-36.969-11.021-2.009 21.332-2.242 41.792-21.975 52.94l-9.819-44.995c-1.476-6.762 1.436-12.931 6.75-17.366l44.459-37.12c7.122-5.946 15.881-7.614 24.172-5.575-10.782-7.594-24.524-7.948-34.834.66l-44.459 37.12c-5.313 4.436-8.226 10.604-6.75 17.367l13.486 61.799c.529-.13 1.049-.264 1.562-.402l.038-.011c.49-.132.973-.268 1.449-.407l.125-.037c.446-.131.885-.266 1.319-.403l.205-.065c.399-.128.791-.258 1.18-.391l.323-.111c.346-.121.688-.243 1.025-.367l.386-.144c.317-.121.63-.242.939-.364z" fill="#eaab92"/><path d="m369.248 190.547 33.158-6.606c3.559-.709 7.052 1.623 7.761 5.182l25.766 129.337c.709 3.559-1.623 7.052-5.182 7.761l-33.158 6.606c-3.559.709-7.051-1.623-7.76-5.183l-25.766-129.337c-.71-3.558 1.621-7.05 5.181-7.76z" fill="#ffda2d"/><path d="m369.248 190.547 4.219-.84 25.304 127.016c.709 3.56 4.201 5.892 7.761 5.183l28.939-5.765.462 2.321c.709 3.559-1.622 7.052-5.182 7.761l-33.158 6.606c-3.559.709-7.051-1.623-7.76-5.183l-25.766-129.336c-.71-3.561 1.622-7.053 5.181-7.763z" fill="#ffc700"/></g></g></svg>